NotoSerifBengali-Regular.ufo
<glyph name="braceleft" format="2">
  <advance width="419"/>
  <unicode hex="007B"/>
  <outline>
    <contour>
      <point x="279" y="-128" type="curve" smooth="yes"/>
      <point x="341" y="-128" type="line"/>
      <point x="341" y="-87" type="line"/>
      <point x="311" y="-87" type="line" smooth="yes"/>
      <point x="252" y="-87"/>
      <point x="229" y="-50"/>
      <point x="229" y="19" type="curve" smooth="yes"/>
      <point x="229" y="192" type="line" smooth="yes"/>
      <point x="229" y="259"/>
      <point x="194" y="305"/>
      <point x="120" y="317" type="curve"/>
      <point x="120" y="318" type="line"/>
      <point x="192" y="330"/>
      <point x="229" y="375"/>
      <point x="229" y="441" type="curve" smooth="yes"/>
      <point x="229" y="613" type="line" smooth="yes"/>
      <point x="229" y="683"/>
      <point x="252" y="719"/>
      <point x="312" y="719" type="curve" smooth="yes"/>
      <point x="341" y="719" type="line"/>
      <point x="341" y="760" type="line"/>
      <point x="279" y="760" type="line" smooth="yes"/>
      <point x="187" y="760"/>
      <point x="138" y="708"/>
      <point x="138" y="618" type="curve" smooth="yes"/>
      <point x="138" y="443" type="line" smooth="yes"/>
      <point x="138" y="361"/>
      <point x="86" y="338"/>
      <point x="20" y="336" type="curve"/>
      <point x="20" y="297" type="line"/>
      <point x="86" y="294"/>
      <point x="138" y="272"/>
      <point x="138" y="189" type="curve" smooth="yes"/>
      <point x="138" y="15" type="line" smooth="yes"/>
      <point x="138" y="-72"/>
      <point x="187" y="-128"/>
    </contour>
  </outline>
</glyph>
<glyph name="candrabindu-beng" format="2">
  <unicode hex="0981"/>
  <anchor x="0" y="622" name="_top"/>
  <outline>
    <contour>
      <point x="-24" y="725" type="curve" smooth="yes"/>
      <point x="68" y="725"/>
      <point x="107" y="789"/>
      <point x="126" y="879" type="curve"/>
      <point x="92" y="894" type="line"/>
      <point x="76" y="844"/>
      <point x="47" y="796"/>
      <point x="-27" y="796" type="curve" smooth="yes"/>
      <point x="-101" y="796"/>
      <point x="-127" y="844"/>
      <point x="-151" y="894" type="curve"/>
      <point x="-184" y="879" type="line"/>
      <point x="-160" y="789"/>
      <point x="-122" y="725"/>
    </contour>
    <contour>
      <point x="-27" y="841" type="curve" smooth="yes"/>
      <point x="-1" y="841"/>
      <point x="21" y="857"/>
      <point x="21" y="889" type="curve" smooth="yes"/>
      <point x="21" y="918"/>
      <point x="-1" y="938"/>
      <point x="-27" y="938" type="curve" smooth="yes"/>
      <point x="-55" y="938"/>
      <point x="-78" y="918"/>
      <point x="-78" y="889" type="curve" smooth="yes"/>
      <point x="-78" y="857"/>
      <point x="-54" y="841"/>
    </contour>
  </outline>
</glyph>
<glyph name="u-beng" format="2">
  <advance width="618"/>
  <unicode hex="0989"/>
  <anchor x="465" y="34" name="bottom"/>
  <anchor x="513" y="-6" name="bottom.rakaar"/>
  <anchor x="441" y="58" name="bottom.rvocalic"/>
  <anchor x="381" y="14" name="bottom.virama"/>
  <anchor x="355" y="617" name="top"/>
  <anchor x="297" y="622" name="topright"/>
  <anchor x="309" y="0" name="vedic"/>
  <anchor x="334" y="-62" name="nukta"/>
  <outline>
    <contour>
      <point x="485" y="612" type="curve"/>
      <point x="529" y="612" type="line"/>
      <point x="515" y="739"/>
      <point x="475" y="805"/>
      <point x="363" y="805" type="curve" smooth="yes"/>
      <point x="315" y="805"/>
      <point x="273" y="796"/>
      <point x="214" y="796" type="curve" smooth="yes"/>
      <point x="126" y="796"/>
      <point x="86" y="809"/>
      <point x="86" y="888" type="curve" smooth="yes"/>
      <point x="86" y="895"/>
      <point x="86" y="904"/>
      <point x="87" y="913" type="curve"/>
      <point x="46" y="917" type="line"/>
      <point x="43" y="899"/>
      <point x="42" y="883"/>
      <point x="42" y="867" type="curve" smooth="yes"/>
      <point x="42" y="765"/>
      <point x="101" y="710"/>
      <point x="214" y="710" type="curve" smooth="yes"/>
      <point x="285" y="710"/>
      <point x="346" y="720"/>
      <point x="390" y="720" type="curve" smooth="yes"/>
      <point x="452" y="720"/>
      <point x="474" y="687"/>
    </contour>
    <component base="dda-beng"/>
  </outline>
</glyph>
<glyph name="ai-beng" format="2">
  <advance width="758"/>
  <unicode hex="0990"/>
  <anchor x="500" y="600" name="top"/>
  <anchor x="464" y="602" name="topright"/>
  <anchor x="379" y="0" name="vedic"/>
  <anchor x="573" y="0" name="bottom"/>
  <anchor x="573" y="3" name="bottom.rvocalic"/>
  <anchor x="553" y="6" name="bottom.virama"/>
  <outline>
    <contour>
      <point x="565" y="334" type="line"/>
      <point x="621" y="384"/>
      <point x="683" y="458"/>
      <point x="683" y="566" type="curve" smooth="yes"/>
      <point x="683" y="734"/>
      <point x="546" y="756"/>
      <point x="419" y="774" type="curve" smooth="yes"/>
      <point x="319" y="788"/>
      <point x="230" y="800"/>
      <point x="230" y="889" type="curve" smooth="yes"/>
      <point x="230" y="916"/>
      <point x="236" y="944"/>
      <point x="246" y="968" type="curve"/>
      <point x="207" y="982" type="line"/>
      <point x="189" y="944"/>
      <point x="181" y="901"/>
      <point x="181" y="869" type="curve" smooth="yes"/>
      <point x="181" y="732"/>
      <point x="300" y="714"/>
      <point x="417" y="699" type="curve" smooth="yes"/>
      <point x="529" y="685"/>
      <point x="640" y="672"/>
      <point x="640" y="557" type="curve" smooth="yes"/>
      <point x="640" y="486"/>
      <point x="599" y="437"/>
      <point x="542" y="394" type="curve"/>
    </contour>
    <component base="e-beng"/>
  </outline>
</glyph>
<glyph name="au-beng" format="2">
  <advance width="768"/>
  <unicode hex="0994"/>
  <anchor x="510" y="39" name="bottom"/>
  <anchor x="558" y="-1" name="bottom.rakaar"/>
  <anchor x="486" y="63" name="bottom.rvocalic"/>
  <anchor x="426" y="19" name="bottom.virama"/>
  <anchor x="530" y="600" name="top"/>
  <anchor x="474" y="602" name="topright"/>
  <anchor x="384" y="0" name="vedic"/>
  <outline>
    <contour>
      <point x="575" y="334" type="line"/>
      <point x="631" y="384"/>
      <point x="693" y="458"/>
      <point x="693" y="567" type="curve" smooth="yes"/>
      <point x="693" y="736"/>
      <point x="551" y="757"/>
      <point x="429" y="774" type="curve" smooth="yes"/>
      <point x="329" y="788"/>
      <point x="240" y="800"/>
      <point x="240" y="889" type="curve" smooth="yes"/>
      <point x="240" y="916"/>
      <point x="246" y="944"/>
      <point x="256" y="968" type="curve"/>
      <point x="217" y="982" type="line"/>
      <point x="199" y="944"/>
      <point x="191" y="901"/>
      <point x="191" y="869" type="curve" smooth="yes"/>
      <point x="191" y="732"/>
      <point x="310" y="714"/>
      <point x="426" y="699" type="curve" smooth="yes"/>
      <point x="539" y="684"/>
      <point x="650" y="672"/>
      <point x="650" y="557" type="curve" smooth="yes"/>
      <point x="650" y="476"/>
      <point x="608" y="429"/>
      <point x="551" y="386" type="curve"/>
    </contour>
    <component base="o-beng"/>
  </outline>
</glyph>
<glyph name="avagraha-beng" format="2">
  <advance width="451"/>
  <unicode hex="09BD"/>
  <anchor x="224" y="570" name="top"/>
  <anchor x="219" y="570" name="topright"/>
  <outline>
    <contour>
      <point x="460" y="-45" type="curve"/>
      <point x="491" y="-12" type="line"/>
      <point x="405" y="70"/>
      <point x="297" y="159"/>
      <point x="183" y="184" type="curve"/>
      <point x="126" y="165" type="line"/>
      <point x="148" y="152"/>
      <point x="186" y="148"/>
      <point x="219" y="148" type="curve" smooth="yes"/>
      <point x="331" y="148"/>
      <point x="419" y="216"/>
      <point x="419" y="335" type="curve" smooth="yes"/>
      <point x="419" y="431"/>
      <point x="360" y="508"/>
      <point x="201" y="508" type="curve" smooth="yes"/>
      <point x="110" y="508"/>
      <point x="57" y="477"/>
      <point x="57" y="416" type="curve" smooth="yes"/>
      <point x="57" y="365"/>
      <point x="91" y="331"/>
      <point x="146" y="331" type="curve" smooth="yes"/>
      <point x="208" y="331"/>
      <point x="234" y="378"/>
      <point x="234" y="434" type="curve" smooth="yes"/>
      <point x="234" y="501"/>
      <point x="181" y="588"/>
      <point x="126" y="622" type="curve"/>
      <point x="-29" y="622" type="line"/>
      <point x="5" y="570" type="line"/>
      <point x="120" y="570" type="line"/>
      <point x="72" y="578" type="line"/>
      <point x="120" y="558"/>
      <point x="165" y="521"/>
      <point x="178" y="468" type="curve"/>
      <point x="168" y="408" type="line"/>
      <point x="187" y="427"/>
      <point x="221" y="444"/>
      <point x="256" y="444" type="curve" smooth="yes"/>
      <point x="335" y="444"/>
      <point x="365" y="400"/>
      <point x="365" y="347" type="curve" smooth="yes"/>
      <point x="365" y="274"/>
      <point x="307" y="227"/>
      <point x="197" y="227" type="curve" smooth="yes"/>
      <point x="137" y="227"/>
      <point x="87" y="234"/>
      <point x="36" y="251" type="curve"/>
      <point x="56" y="153" type="line"/>
      <point x="223" y="128"/>
      <point x="319" y="78"/>
    </contour>
  </outline>
</glyph>
<glyph name="uMatra-beng" format="2">
  <unicode hex="09C1"/>
  <anchor x="0" y="0" name="_bottom"/>
  <outline>
    <contour>
      <point x="181" y="-288" type="curve"/>
      <point x="211" y="-266" type="line"/>
      <point x="142" y="-144"/>
      <point x="21" y="-33"/>
      <point x="-119" y="-33" type="curve" smooth="yes"/>
      <point x="-208" y="-33"/>
      <point x="-256" y="-77"/>
      <point x="-256" y="-141" type="curve" smooth="yes"/>
      <point x="-256" y="-207"/>
      <point x="-203" y="-251"/>
      <point x="-137" y="-251" type="curve" smooth="yes"/>
      <point x="-39" y="-251"/>
      <point x="9" y="-181"/>
      <point x="9" y="-83" type="curve" smooth="yes"/>
      <point x="9" y="-31"/>
      <point x="2" y="30"/>
      <point x="-16" y="68" type="curve"/>
      <point x="-65" y="56" type="line"/>
      <point x="-53" y="33"/>
      <point x="-43" y="-27"/>
      <point x="-43" y="-54" type="curve" smooth="yes"/>
      <point x="-43" y="-148"/>
      <point x="-80" y="-189"/>
      <point x="-139" y="-189" type="curve" smooth="yes"/>
      <point x="-181" y="-189"/>
      <point x="-204" y="-168"/>
      <point x="-204" y="-137" type="curve" smooth="yes"/>
      <point x="-204" y="-108"/>
      <point x="-182" y="-90"/>
      <point x="-129" y="-90" type="curve" smooth="yes"/>
      <point x="7" y="-90"/>
      <point x="107" y="-172"/>
    </contour>
  </outline>
</glyph>
<glyph name="rVocalicMatra-beng" format="2">
  <unicode hex="09C3"/>
  <anchor x="0" y="0" name="_bottom.rvocalic"/>
  <outline>
    <contour>
      <point x="36" y="-276" type="curve"/>
      <point x="57" y="-245" type="line"/>
      <point x="21" y="-199"/>
      <point x="-70" y="-114"/>
      <point x="-159" y="-74" type="curve"/>
      <point x="-149" y="-101" type="line"/>
      <point x="-97" y="-70"/>
      <point x="-59" y="-48"/>
      <point x="0" y="-24" type="curve"/>
      <point x="0" y="-10" type="line"/>
      <point x="-40" y="41" type="line"/>
      <point x="-97" y="18"/>
      <point x="-171" y="-19"/>
      <point x="-243" y="-68" type="curve"/>
      <point x="-190" y="-129" type="line"/>
      <point x="-113" y="-156"/>
      <point x="-34" y="-211"/>
    </contour>
  </outline>
</glyph>
<glyph name="five-beng" format="2">
  <advance width="578"/>
  <unicode hex="09EB"/>
  <outline>
    <contour>
      <point x="362" y="-2" type="curve" smooth="yes"/>
      <point x="424" y="-2"/>
      <point x="474" y="19"/>
      <point x="522" y="61" type="curve"/>
      <point x="500" y="102" type="line"/>
      <point x="426" y="103"/>
      <point x="390" y="136"/>
      <point x="390" y="193" type="curve" smooth="yes"/>
      <point x="390" y="275"/>
      <point x="463" y="342"/>
      <point x="528" y="365" type="curve"/>
      <point x="488" y="431" type="line"/>
      <point x="448" y="424"/>
      <point x="364" y="426"/>
      <point x="364" y="494" type="curve" smooth="yes"/>
      <point x="364" y="524"/>
      <point x="376" y="550"/>
      <point x="388" y="567" type="curve"/>
      <point x="388" y="600"/>
      <point x="374" y="623"/>
      <point x="331" y="623" type="curve" smooth="yes"/>
      <point x="228" y="623"/>
      <point x="80" y="463"/>
      <point x="80" y="295" type="curve" smooth="yes"/>
      <point x="80" y="112"/>
      <point x="201" y="-2"/>
    </contour>
    <contour>
      <point x="347" y="64" type="curve" smooth="yes"/>
      <point x="216" y="64"/>
      <point x="146" y="142"/>
      <point x="146" y="264" type="curve" smooth="yes"/>
      <point x="146" y="397"/>
      <point x="218" y="495"/>
      <point x="325" y="533" type="curve"/>
      <point x="301" y="541" type="line"/>
      <point x="299" y="529"/>
      <point x="298" y="518"/>
      <point x="298" y="508" type="curve" smooth="yes"/>
      <point x="298" y="413"/>
      <point x="379" y="390"/>
      <point x="456" y="390" type="curve"/>
      <point x="457" y="414" type="line"/>
      <point x="368" y="386"/>
      <point x="317" y="302"/>
      <point x="317" y="220" type="curve" smooth="yes"/>
      <point x="317" y="139"/>
      <point x="370" y="80"/>
      <point x="435" y="71" type="curve"/>
      <point x="423" y="87" type="line"/>
      <point x="415" y="74"/>
      <point x="387" y="64"/>
    </contour>
  </outline>
</glyph>
<glyph name="eight-beng" format="2">
  <advance width="608"/>
  <unicode hex="09EE"/>
  <outline>
    <contour>
      <point x="277" y="11" type="curve" smooth="yes"/>
      <point x="373" y="11"/>
      <point x="477" y="112"/>
      <point x="477" y="214" type="curve" smooth="yes"/>
      <point x="477" y="265"/>
      <point x="452" y="297"/>
      <point x="401" y="348" type="curve"/>
      <point x="363" y="348" type="line"/>
      <point x="390" y="304"/>
      <point x="402" y="277"/>
      <point x="402" y="237" type="curve" smooth="yes"/>
      <point x="402" y="150"/>
      <point x="317" y="74"/>
      <point x="257" y="74" type="curve" smooth="yes"/>
      <point x="221" y="74"/>
      <point x="198" y="95"/>
      <point x="198" y="139" type="curve" smooth="yes"/>
      <point x="198" y="532" type="line" smooth="yes"/>
      <point x="198" y="592"/>
      <point x="169" y="624"/>
      <point x="121" y="624" type="curve" smooth="yes"/>
      <point x="79" y="624"/>
      <point x="55" y="594"/>
      <point x="55" y="558" type="curve" smooth="yes"/>
      <point x="55" y="524"/>
      <point x="79" y="497"/>
      <point x="117" y="497" type="curve" smooth="yes"/>
      <point x="152" y="497"/>
      <point x="165" y="517"/>
      <point x="169" y="545" type="curve"/>
      <point x="144" y="545" type="line"/>
      <point x="144" y="153" type="line" smooth="yes"/>
      <point x="144" y="78"/>
      <point x="189" y="11"/>
    </contour>
    <contour>
      <point x="180" y="274" type="line"/>
      <point x="230" y="307"/>
      <point x="298" y="343"/>
      <point x="370" y="343" type="curve" smooth="yes"/>
      <point x="430" y="343"/>
      <point x="460" y="305"/>
      <point x="503" y="305" type="curve" smooth="yes"/>
      <point x="541" y="305"/>
      <point x="573" y="321"/>
      <point x="583" y="422" type="curve"/>
      <point x="546" y="431" type="line"/>
      <point x="529" y="381"/>
      <point x="514" y="371"/>
      <point x="476" y="371" type="curve" smooth="yes"/>
      <point x="407" y="371"/>
      <point x="376" y="398"/>
      <point x="314" y="398" type="curve" smooth="yes"/>
      <point x="275" y="398"/>
      <point x="227" y="386"/>
      <point x="185" y="364" type="curve"/>
    </contour>
  </outline>
</glyph>
<glyph name="rupeemark-beng" format="2">
  <advance width="570"/>
  <unicode hex="09F2"/>
  <outline>
    <contour>
      <point x="478" y="14" type="curve"/>
      <point x="515" y="26" type="line"/>
      <point x="388" y="340"/>
      <point x="234" y="459"/>
      <point x="113" y="545" type="curve"/>
      <point x="90" y="455" type="line"/>
      <point x="190" y="394"/>
      <point x="343" y="286"/>
    </contour>
  </outline>
</glyph>
<glyph name="rupee-beng" format="2">
  <advance width="560"/>
  <unicode hex="09F3"/>
  <outline>
    <contour>
      <point x="270" y="31" type="curve" smooth="yes"/>
      <point x="386" y="31"/>
      <point x="486" y="166"/>
      <point x="486" y="288" type="curve" smooth="yes"/>
      <point x="486" y="376"/>
      <point x="438" y="408"/>
      <point x="383" y="408" type="curve" smooth="yes"/>
      <point x="327" y="408"/>
      <point x="298" y="369"/>
      <point x="298" y="327" type="curve" smooth="yes"/>
      <point x="298" y="279"/>
      <point x="326" y="248"/>
      <point x="376" y="248" type="curve" smooth="yes"/>
      <point x="407" y="248"/>
      <point x="417" y="260"/>
      <point x="430" y="272" type="curve"/>
      <point x="406" y="301" type="line"/>
      <point x="401" y="194"/>
      <point x="334" y="96"/>
      <point x="261" y="96" type="curve" smooth="yes"/>
      <point x="222" y="96"/>
      <point x="198" y="119"/>
      <point x="198" y="157" type="curve" smooth="yes"/>
      <point x="198" y="641" type="line" smooth="yes"/>
      <point x="198" y="701"/>
      <point x="169" y="733"/>
      <point x="121" y="733" type="curve" smooth="yes"/>
      <point x="79" y="733"/>
      <point x="55" y="703"/>
      <point x="55" y="667" type="curve" smooth="yes"/>
      <point x="55" y="633"/>
      <point x="79" y="606"/>
      <point x="117" y="606" type="curve" smooth="yes"/>
      <point x="152" y="606"/>
      <point x="165" y="626"/>
      <point x="169" y="654" type="curve"/>
      <point x="144" y="654" type="line"/>
      <point x="144" y="155" type="line" smooth="yes"/>
      <point x="144" y="81"/>
      <point x="198" y="31"/>
    </contour>
    <contour>
      <point x="65" y="468" type="line"/>
      <point x="510" y="468" type="line"/>
      <point x="476" y="521" type="line"/>
      <point x="30" y="521" type="line"/>
    </contour>
  </outline>
</glyph>
<glyph name="threeNumr-beng" format="2">
  <advance width="692"/>
  <unicode hex="09F6"/>
  <outline>
    <contour>
      <point x="235" y="15" type="curve" smooth="yes"/>
      <point x="360" y="15"/>
      <point x="506" y="142"/>
      <point x="617" y="625" type="curve"/>
      <point x="574" y="637" type="line"/>
      <point x="460" y="239"/>
      <point x="288" y="78"/>
      <point x="183" y="78" type="curve" smooth="yes"/>
      <point x="154" y="78"/>
      <point x="139" y="92"/>
      <point x="139" y="111" type="curve" smooth="yes"/>
      <point x="139" y="138"/>
      <point x="174" y="159"/>
      <point x="231" y="179" type="curve" smooth="yes"/>
      <point x="323" y="211"/>
      <point x="362" y="249"/>
      <point x="362" y="318" type="curve" smooth="yes"/>
      <point x="362" y="420"/>
      <point x="279" y="469"/>
      <point x="199" y="469" type="curve" smooth="yes"/>
      <point x="119" y="469"/>
      <point x="78" y="418"/>
      <point x="78" y="365" type="curve" smooth="yes"/>
      <point x="78" y="312"/>
      <point x="113" y="284"/>
      <point x="156" y="284" type="curve" smooth="yes"/>
      <point x="203" y="284"/>
      <point x="227" y="316"/>
      <point x="227" y="350" type="curve" smooth="yes"/>
      <point x="227" y="374"/>
      <point x="215" y="399"/>
      <point x="190" y="413" type="curve"/>
      <point x="177" y="393" type="line"/>
      <point x="188" y="398"/>
      <point x="207" y="402"/>
      <point x="224" y="402" type="curve" smooth="yes"/>
      <point x="274" y="402"/>
      <point x="310" y="387"/>
      <point x="310" y="348" type="curve" smooth="yes"/>
      <point x="310" y="305"/>
      <point x="277" y="287"/>
      <point x="197" y="258" type="curve" smooth="yes"/>
      <point x="137" y="236"/>
      <point x="70" y="210"/>
      <point x="70" y="150" type="curve" smooth="yes"/>
      <point x="70" y="87"/>
      <point x="132" y="15"/>
    </contour>
  </outline>
</glyph>
<glyph name="oneLessNumr-beng" format="2">
  <advance width="640"/>
  <unicode hex="09F8"/>
  <outline>
    <contour>
      <point x="518" y="25" type="curve" smooth="yes"/>
      <point x="560" y="25"/>
      <point x="580" y="51"/>
      <point x="580" y="87" type="curve" smooth="yes"/>
      <point x="580" y="125"/>
      <point x="555" y="152"/>
      <point x="517" y="152" type="curve" smooth="yes"/>
      <point x="482" y="152"/>
      <point x="469" y="132"/>
      <point x="465" y="104" type="curve"/>
      <point x="493" y="104" type="line"/>
      <point x="493" y="431" type="line"/>
      <point x="428" y="486" type="line"/>
      <point x="334" y="416"/>
      <point x="250" y="342"/>
      <point x="182" y="261" type="curve"/>
      <point x="198" y="243" type="line"/>
      <point x="202" y="279"/>
      <point x="203" y="324"/>
      <point x="203" y="366" type="curve" smooth="yes"/>
      <point x="203" y="532" type="line" smooth="yes"/>
      <point x="203" y="592"/>
      <point x="174" y="624"/>
      <point x="126" y="624" type="curve" smooth="yes"/>
      <point x="84" y="624"/>
      <point x="60" y="594"/>
      <point x="60" y="558" type="curve" smooth="yes"/>
      <point x="60" y="524"/>
      <point x="84" y="497"/>
      <point x="122" y="497" type="curve" smooth="yes"/>
      <point x="157" y="497"/>
      <point x="170" y="517"/>
      <point x="174" y="545" type="curve"/>
      <point x="149" y="545" type="line"/>
      <point x="149" y="185" type="line"/>
      <point x="198" y="153" type="line"/>
      <point x="292" y="260"/>
      <point x="361" y="328"/>
      <point x="449" y="397" type="curve"/>
      <point x="439" y="406" type="line"/>
      <point x="439" y="127" type="line" smooth="yes"/>
      <point x="439" y="67"/>
      <point x="470" y="25"/>
    </contour>
  </outline>
</glyph>
<glyph name="sixteenDnom-beng" format="2">
  <advance width="431"/>
  <unicode hex="09F9"/>
  <outline>
    <contour>
      <point x="210" y="152" type="curve" smooth="yes"/>
      <point x="305" y="152"/>
      <point x="373" y="220"/>
      <point x="373" y="317" type="curve" smooth="yes"/>
      <point x="373" y="406"/>
      <point x="315" y="475"/>
      <point x="220" y="475" type="curve" smooth="yes"/>
      <point x="125" y="475"/>
      <point x="58" y="407"/>
      <point x="58" y="308" type="curve" smooth="yes"/>
      <point x="58" y="223"/>
      <point x="114" y="152"/>
    </contour>
    <contour>
      <point x="193" y="212" type="curve" smooth="yes"/>
      <point x="150" y="212"/>
      <point x="118" y="234"/>
      <point x="118" y="288" type="curve" smooth="yes"/>
      <point x="118" y="353"/>
      <point x="178" y="411"/>
      <point x="243" y="411" type="curve" smooth="yes"/>
      <point x="291" y="411"/>
      <point x="315" y="380"/>
      <point x="315" y="337" type="curve" smooth="yes"/>
      <point x="315" y="273"/>
      <point x="256" y="212"/>
    </contour>
  </outline>
</glyph>
<glyph name="uni09FC" format="2">
  <advance width="502"/>
  <unicode hex="09FC"/>
  <anchor x="-194" y="0" name="vedic"/>
  <outline>
    <contour>
      <point x="257" y="264" type="curve" smooth="yes"/>
      <point x="366" y="264"/>
      <point x="418" y="340"/>
      <point x="441" y="451" type="curve"/>
      <point x="402" y="469" type="line"/>
      <point x="379" y="401"/>
      <point x="344" y="347"/>
      <point x="253" y="347" type="curve" smooth="yes"/>
      <point x="163" y="347"/>
      <point x="129" y="405"/>
      <point x="99" y="469" type="curve"/>
      <point x="61" y="451" type="line"/>
      <point x="90" y="340"/>
      <point x="142" y="264"/>
    </contour>
    <contour>
      <point x="254" y="404" type="curve" smooth="yes"/>
      <point x="283" y="404"/>
      <point x="309" y="424"/>
      <point x="309" y="460" type="curve" smooth="yes"/>
      <point x="309" y="495"/>
      <point x="284" y="517"/>
      <point x="254" y="517" type="curve" smooth="yes"/>
      <point x="221" y="517"/>
      <point x="196" y="495"/>
      <point x="196" y="460" type="curve" smooth="yes"/>
      <point x="196" y="425"/>
      <point x="222" y="404"/>
    </contour>
    <contour>
      <point x="416" y="-23" type="curve"/>
      <point x="445" y="8" type="line"/>
      <point x="387" y="87"/>
      <point x="311" y="137"/>
      <point x="218" y="167" type="curve"/>
      <point x="198" y="101" type="line"/>
      <point x="283" y="82"/>
      <point x="359" y="37"/>
    </contour>
  </outline>
</glyph>
<glyph name="uni1CD0" format="2">
  <unicode hex="1CD0"/>
  <note>
uni1CD0
</note>
  <anchor x="-299" y="-250" name="_vedic"/>
  <outline>
    <contour>
      <point x="-396" y="700" type="line"/>
      <point x="-276" y="843" type="line"/>
      <point x="-285" y="844" type="line"/>
      <point x="-161" y="700" type="line"/>
      <point x="-132" y="729" type="line"/>
      <point x="-305" y="935" type="line"/>
      <point x="-465" y="750" type="line"/>
    </contour>
  </outline>
</glyph>
<glyph name="uni1CD6" format="2">
  <unicode hex="1CD6"/>
  <note>
uni1CD6
</note>
  <anchor x="-299" y="370" name="_vedic"/>
  <outline>
    <contour>
      <point x="-440" y="-246" type="line"/>
      <point x="-118" y="-246" type="line"/>
      <point x="-157" y="-194" type="line"/>
      <point x="-425" y="-194" type="line"/>
      <point x="-425" y="-99" type="line"/>
      <point x="-479" y="-61" type="line"/>
      <point x="-479" y="-201" type="line"/>
    </contour>
  </outline>
</glyph>
<glyph name="uni1CED" format="2">
  <unicode hex="1CED"/>
  <note>
uni1CED
</note>
  <anchor x="-299" y="370" name="_vedic"/>
  <outline>
    <contour>
      <point x="-414" y="-110" type="line"/>
      <point x="-157" y="-295" type="line"/>
      <point x="-128" y="-256" type="line"/>
      <point x="-378" y="-64" type="line"/>
    </contour>
  </outline>
</glyph>
<glyph name="assacross" format="2">
  <advance width="511"/>
  <anchor x="204" y="68" name="_nukta"/>
  <outline>
    <contour>
      <point x="389" y="183" type="curve"/>
      <point x="410" y="215" type="line"/>
      <point x="364" y="303"/>
      <point x="298" y="354"/>
      <point x="237" y="402" type="curve"/>
      <point x="179" y="357" type="line"/>
      <point x="240" y="329"/>
      <point x="312" y="281"/>
    </contour>
  </outline>
</glyph>
<glyph name="g-beng" format="2">
  <advance width="368"/>
  <outline>
    <contour>
      <point x="187" y="172" type="line"/>
      <point x="289" y="235"/>
      <point x="328" y="291"/>
      <point x="328" y="368" type="curve" smooth="yes"/>
      <point x="328" y="436"/>
      <point x="284" y="490"/>
      <point x="210" y="490" type="curve" smooth="yes"/>
      <point x="160" y="490"/>
      <point x="127" y="474"/>
      <point x="106" y="462" type="curve"/>
      <point x="128" y="450" type="line"/>
      <point x="169" y="536"/>
      <point x="215" y="551"/>
      <point x="254" y="551" type="curve" smooth="yes"/>
      <point x="318" y="551"/>
      <point x="373" y="513"/>
      <point x="456" y="361" type="curve"/>
      <point x="488" y="382" type="line"/>
      <point x="391" y="576"/>
      <point x="317" y="629"/>
      <point x="237" y="629" type="curve" smooth="yes"/>
      <point x="163" y="629"/>
      <point x="83" y="584"/>
      <point x="15" y="455" type="curve"/>
      <point x="82" y="388" type="line"/>
      <point x="126" y="423"/>
      <point x="167" y="438"/>
      <point x="208" y="438" type="curve" smooth="yes"/>
      <point x="249" y="438"/>
      <point x="268" y="415"/>
      <point x="268" y="383" type="curve" smooth="yes"/>
      <point x="268" y="336"/>
      <point x="213" y="296"/>
      <point x="127" y="263" type="curve"/>
    </contour>
  </outline>
</glyph>
<glyph name="iMatra-beng.short" format="2">
  <advance width="214"/>
  <anchor x="583" y="664" name="top"/>
  <anchor x="126" y="617" name="topleft"/>
  <anchor x="424" y="612" name="topright"/>
  <outline>
    <contour>
      <point x="131" y="-25" type="line"/>
      <point x="134" y="-24" type="line"/>
      <point x="134" y="570" type="line"/>
      <point x="243" y="570" type="line"/>
      <point x="208" y="622" type="line"/>
      <point x="122" y="622" type="line"/>
      <point x="105" y="642"/>
      <point x="93" y="665"/>
      <point x="76" y="689" type="curve"/>
      <point x="111" y="763"/>
      <point x="182" y="848"/>
      <point x="277" y="848" type="curve" smooth="yes"/>
      <point x="363" y="848"/>
      <point x="441" y="816"/>
      <point x="563" y="695" type="curve"/>
      <point x="590" y="720" type="line"/>
      <point x="485" y="837"/>
      <point x="374" y="920"/>
      <point x="256" y="920" type="curve" smooth="yes"/>
      <point x="147" y="920"/>
      <point x="58" y="839"/>
      <point x="-11" y="707" type="curve"/>
      <point x="15" y="677"/>
      <point x="43" y="649"/>
      <point x="73" y="622" type="curve"/>
      <point x="-29" y="622" type="line"/>
      <point x="4" y="570" type="line"/>
      <point x="80" y="570" type="line"/>
      <point x="80" y="3" type="line"/>
    </contour>
  </outline>
</glyph>
<glyph name="iMatra-beng.wide2" format="2">
  <advance width="214"/>
  <anchor x="843" y="654" name="top"/>
  <anchor x="684" y="602" name="topright"/>
  <outline>
    <contour>
      <point x="131" y="-25" type="line"/>
      <point x="134" y="-24" type="line"/>
      <point x="134" y="570" type="line"/>
      <point x="243" y="570" type="line"/>
      <point x="208" y="622" type="line"/>
      <point x="122" y="622" type="line"/>
      <point x="105" y="642"/>
      <point x="93" y="665"/>
      <point x="76" y="689" type="curve"/>
      <point x="130" y="780"/>
      <point x="222" y="849"/>
      <point x="359" y="849" type="curve" smooth="yes"/>
      <point x="524" y="849"/>
      <point x="690" y="777"/>
      <point x="821" y="681" type="curve"/>
      <point x="846" y="713" type="line"/>
      <point x="694" y="837"/>
      <point x="497" y="921"/>
      <point x="334" y="921" type="curve" smooth="yes"/>
      <point x="192" y="921"/>
      <point x="68" y="839"/>
      <point x="-11" y="707" type="curve"/>
      <point x="15" y="677"/>
      <point x="43" y="649"/>
      <point x="73" y="622" type="curve"/>
      <point x="-29" y="622" type="line"/>
      <point x="4" y="570" type="line"/>
      <point x="80" y="570" type="line"/>
      <point x="80" y="3" type="line"/>
    </contour>
  </outline>
</glyph>
<glyph name="iMatra-beng.wide4" format="2">
  <advance width="214"/>
  <anchor x="1073" y="644" name="top"/>
  <anchor x="914" y="592" name="topright"/>
  <outline>
    <contour>
      <point x="131" y="-25" type="line"/>
      <point x="134" y="-24" type="line"/>
      <point x="134" y="570" type="line"/>
      <point x="243" y="570" type="line"/>
      <point x="208" y="622" type="line"/>
      <point x="122" y="622" type="line"/>
      <point x="105" y="642"/>
      <point x="93" y="665"/>
      <point x="76" y="689" type="curve"/>
      <point x="155" y="779"/>
      <point x="287" y="851"/>
      <point x="468" y="851" type="curve" smooth="yes"/>
      <point x="686" y="851"/>
      <point x="894" y="785"/>
      <point x="1057" y="679" type="curve"/>
      <point x="1079" y="715" type="line"/>
      <point x="891" y="847"/>
      <point x="648" y="921"/>
      <point x="436" y="921" type="curve" smooth="yes"/>
      <point x="239" y="921"/>
      <point x="96" y="841"/>
      <point x="-11" y="709" type="curve"/>
      <point x="15" y="679"/>
      <point x="43" y="649"/>
      <point x="73" y="622" type="curve"/>
      <point x="-29" y="622" type="line"/>
      <point x="4" y="570" type="line"/>
      <point x="80" y="570" type="line"/>
      <point x="80" y="3" type="line"/>
    </contour>
  </outline>
</glyph>
<glyph name="iiMatra_reph_candrabindu-beng" format="2">
  <advance width="214"/>
  <anchor x="137" y="665" name="top"/>
  <anchor x="10" y="570" name="topright"/>
  <anchor x="-194" y="0" name="vedic"/>
  <outline>
    <contour>
      <point x="10" y="821" type="curve" smooth="yes"/>
      <point x="83" y="821"/>
      <point x="129" y="869"/>
      <point x="140" y="961" type="curve"/>
      <point x="107" y="973" type="line"/>
      <point x="98" y="931"/>
      <point x="69" y="886"/>
      <point x="10" y="886" type="curve" smooth="yes"/>
      <point x="-50" y="886"/>
      <point x="-78" y="931"/>
      <point x="-88" y="973" type="curve"/>
      <point x="-120" y="961" type="line"/>
      <point x="-109" y="869"/>
      <point x="-63" y="821"/>
    </contour>
    <contour>
      <point x="10" y="929" type="curve" smooth="yes"/>
      <point x="35" y="929"/>
      <point x="57" y="945"/>
      <point x="57" y="976" type="curve" smooth="yes"/>
      <point x="57" y="1004"/>
      <point x="35" y="1024"/>
      <point x="10" y="1024" type="curve" smooth="yes"/>
      <point x="-17" y="1024"/>
      <point x="-40" y="1004"/>
      <point x="-40" y="976" type="curve" smooth="yes"/>
      <point x="-40" y="945"/>
      <point x="-16" y="929"/>
    </contour>
    <component base="iiMatra-beng"/>
    <component base="reph-beng" xOffset="115" yOffset="-54"/>
  </outline>
</glyph>
<glyph name="tta_iiMatra-beng" format="2">
  <advance width="725"/>
  <anchor x="325" y="25" name="bottom"/>
  <anchor x="375" y="5" name="bottom.rakaar"/>
  <anchor x="322" y="25" name="bottom.rvocalic"/>
  <anchor x="246" y="41" name="bottom.virama"/>
  <anchor x="648" y="665" name="top"/>
  <anchor x="521" y="570" name="topright"/>
  <anchor x="362" y="0" name="vedic"/>
  <anchor x="222" y="-72" name="nukta"/>
  <outline>
    <contour>
      <point x="642" y="-25" type="line"/>
      <point x="645" y="-24" type="line"/>
      <point x="645" y="570" type="line"/>
      <point x="754" y="570" type="line"/>
      <point x="719" y="622" type="line"/>
      <point x="644" y="622" type="line"/>
      <point x="623" y="827"/>
      <point x="495" y="918"/>
      <point x="300" y="918" type="curve" smooth="yes"/>
      <point x="162" y="918"/>
      <point x="84" y="863"/>
      <point x="84" y="791" type="curve" smooth="yes"/>
      <point x="84" y="764"/>
      <point x="91" y="745"/>
      <point x="103" y="730" type="curve"/>
      <point x="115" y="747" type="line"/>
      <point x="42" y="747"/>
      <point x="14" y="781"/>
      <point x="14" y="849" type="curve" smooth="yes"/>
      <point x="14" y="858"/>
      <point x="15" y="869"/>
      <point x="16" y="880" type="curve"/>
      <point x="-25" y="884" type="line"/>
      <point x="-28" y="866"/>
      <point x="-29" y="848"/>
      <point x="-29" y="831" type="curve" smooth="yes"/>
      <point x="-29" y="742"/>
      <point x="10" y="677"/>
      <point x="112" y="677" type="curve" smooth="yes"/>
      <point x="167" y="677"/>
      <point x="228" y="691"/>
      <point x="280" y="691" type="curve" smooth="yes"/>
      <point x="343" y="691"/>
      <point x="372" y="673"/>
      <point x="381" y="612" type="curve"/>
      <point x="425" y="612" type="line"/>
      <point x="416" y="706"/>
      <point x="373" y="765"/>
      <point x="285" y="765" type="curve" smooth="yes"/>
      <point x="246" y="765"/>
      <point x="219" y="758"/>
      <point x="182" y="758" type="curve" smooth="yes"/>
      <point x="141" y="758"/>
      <point x="132" y="769"/>
      <point x="132" y="790" type="curve" smooth="yes"/>
      <point x="132" y="827"/>
      <point x="191" y="847"/>
      <point x="300" y="847" type="curve" smooth="yes"/>
      <point x="449" y="847"/>
      <point x="584" y="800"/>
      <point x="591" y="622" type="curve"/>
      <point x="471" y="622" type="line"/>
      <point x="504" y="570" type="line"/>
      <point x="591" y="570" type="line"/>
      <point x="591" y="3" type="line"/>
    </contour>
    <component base="ddha-beng" xOffset="5"/>
  </outline>
</glyph>
<glyph name="uni1CF5.stack" format="2">
  <anchor x="-299" y="0" name="_vedic"/>
  <outline>
    <contour>
      <point x="-144" y="963" type="line"/>
      <point x="-178" y="989" type="line"/>
      <point x="-292" y="854" type="line"/>
      <point x="-408" y="989" type="line"/>
      <point x="-460" y="953" type="line"/>
      <point x="-331" y="808" type="line"/>
      <point x="-453" y="668" type="line"/>
      <point x="-419" y="642" type="line"/>
      <point x="-305" y="778" type="line"/>
      <point x="-190" y="645" type="line"/>
      <point x="-138" y="680" type="line"/>
      <point x="-265" y="824" type="line"/>
    </contour>
  </outline>
</glyph>
<glyph name="yNukta_ra-beng" format="2">
  <advance width="629"/>
  <anchor x="544" y="-96" name="bottom"/>
  <anchor x="549" y="-123" name="bottom.rvocalic"/>
  <anchor x="529" y="-120" name="bottom.virama"/>
  <anchor x="549" y="570" name="top"/>
  <anchor x="552" y="570" name="topright"/>
  <outline>
    <contour>
      <point x="544" y="-139" type="line"/>
      <point x="549" y="-138" type="line"/>
      <point x="549" y="584" type="line"/>
      <point x="495" y="584" type="line"/>
      <point x="495" y="165" type="line"/>
      <point x="507" y="174" type="line"/>
      <point x="438" y="257"/>
      <point x="331" y="300"/>
      <point x="226" y="324" type="curve"/>
      <point x="237" y="296" type="line"/>
      <point x="282" y="329"/>
      <point x="362" y="368"/>
      <point x="418" y="395" type="curve"/>
      <point x="374" y="477"/>
      <point x="300" y="541"/>
      <point x="184" y="583" type="curve"/>
      <point x="184" y="570" type="line"/>
      <point x="658" y="570" type="line"/>
      <point x="624" y="622" type="line"/>
      <point x="-29" y="622" type="line"/>
      <point x="5" y="570" type="line"/>
      <point x="144" y="570" type="line"/>
      <point x="108" y="587" type="line"/>
      <point x="162" y="503" type="line"/>
      <point x="239" y="493"/>
      <point x="297" y="471"/>
      <point x="361" y="422" type="curve"/>
      <point x="356" y="459" type="line"/>
      <point x="293" y="434"/>
      <point x="215" y="388"/>
      <point x="159" y="355" type="curve"/>
      <point x="200" y="249" type="line"/>
      <point x="347" y="234"/>
      <point x="439" y="198"/>
      <point x="502" y="124" type="curve"/>
      <point x="496" y="153" type="line"/>
      <point x="496" y="4"/>
      <point x="498" y="-27"/>
      <point x="499" y="-45" type="curve"/>
      <point x="458" y="9"/>
      <point x="412" y="36"/>
      <point x="355" y="36" type="curve" smooth="yes"/>
      <point x="297" y="36"/>
      <point x="266" y="30"/>
      <point x="218" y="30" type="curve" smooth="yes"/>
      <point x="155" y="30"/>
      <point x="113" y="58"/>
      <point x="113" y="119" type="curve" smooth="yes"/>
      <point x="113" y="151"/>
      <point x="118" y="178"/>
      <point x="126" y="201" type="curve"/>
      <point x="82" y="211" type="line"/>
      <point x="73" y="181"/>
      <point x="65" y="141"/>
      <point x="65" y="98" type="curve" smooth="yes"/>
      <point x="65" y="-19"/>
      <point x="136" y="-58"/>
      <point x="213" y="-58" type="curve" smooth="yes"/>
      <point x="270" y="-58"/>
      <point x="303" y="-47"/>
      <point x="364" y="-47" type="curve" smooth="yes"/>
      <point x="412" y="-47"/>
      <point x="461" y="-62"/>
      <point x="497" y="-102" type="curve"/>
    </contour>
    <contour>
      <point x="309" y="72" type="curve" smooth="yes"/>
      <point x="340" y="72"/>
      <point x="368" y="95"/>
      <point x="368" y="130" type="curve" smooth="yes"/>
      <point x="368" y="165"/>
      <point x="341" y="189"/>
      <point x="309" y="189" type="curve" smooth="yes"/>
      <point x="276" y="189"/>
      <point x="249" y="165"/>
      <point x="249" y="130" type="curve" smooth="yes"/>
      <point x="249" y="96"/>
      <point x="277" y="72"/>
    </contour>
  </outline>
</glyph>
